<svg width="141" height="129" viewBox="0 0 141 129" fill="none" xmlns="http://www.w3.org/2000/svg">
<path d="M66.5233 69.416C84.2593 66.8128 104.203 56.2302 115 49.82C101.191 67.7128 83.0642 83.1519 60.8497 91.8018C33.6651 86.7131 -12.4237 104.321 3.18689 120.057C16.9853 133.979 51.2348 105.222 61.8457 95.704C68.1894 93.4569 74.2842 90.6841 80.0499 87.4219C74.6265 95.1508 70.4909 103.543 67.7734 112.335C63.552 126.393 76.7872 135.443 89.9938 120.733C100.862 108.591 103.521 79.6094 104.189 69.7352C111.106 63.3101 117.378 56.354 122.932 48.9475C116.664 76.0976 122.054 105.466 135.083 105.275C154.412 104.98 155.272 74.6521 155.578 55.4262C155.816 40.0375 146.149 23.1861 142.275 17.0586C143.952 13.3955 145.457 9.68056 146.787 5.95567C147.659 3.40558 140.92 2.97355 140.201 5.05474C139.754 6.34811 139.273 7.63359 138.768 8.92366C116.587 -1.64404 63.7741 -1.8997 54.7741 6.68783C45.4114 15.6203 51.3183 21.1388 78.3765 24.3337C101.545 27.0619 127.89 16.3884 137.518 12.0257C132.773 22.9686 126.834 33.4685 119.787 43.3734C93.956 33.5019 21.7349 40.9877 18.3745 54.9245C14.7924 69.4822 40.6421 73.2093 66.5233 69.416Z" fill="#BBBEA0"/>
</svg>
