<svg width="119" height="70" viewBox="0 0 119 70" fill="none" xmlns="http://www.w3.org/2000/svg">
<path d="M1.15091 59.5747C-1.19629 50.437 6.26294 40.8398 13.3479 37.961C19.7193 35.3831 25.8609 36.1676 31.661 39.4089C32.9005 40.1328 34.1913 40.7849 35.5255 41.3611C40.5756 43.4355 42.679 41.969 43.5643 36.8798C44.1306 33.6166 42.4786 30.8151 40.9048 28.1201C37.7757 22.7579 36.6649 17.1206 38.3373 11.3489C39.6788 6.77416 42.712 3.10115 48.2068 1.50895C54.7882 -0.402756 62.701 2.64429 65.0074 8.11367C65.9678 10.393 65.2277 12.7225 65.2794 15.0268C65.3276 17.2085 65.3065 19.39 66.0143 21.5143C66.7838 23.8555 68.4896 24.424 70.755 23.0504C72.6459 21.8218 74.2682 20.2962 75.5415 18.549C81.0948 11.3828 88.9404 9.55367 97.9119 11.3199C104.447 12.6096 106.544 18.2595 102.8 22.9027C100.976 25.1625 98.2632 26.4474 95.9034 28.1212C94.6858 28.9854 93.3733 29.7458 92.1983 30.6492C88.7748 33.3045 88.9642 36.7678 92.5383 39.4176C96.4131 42.2878 101.174 42.6969 105.864 43.287C110.554 43.8771 114.667 45.1808 117.032 49.1821C119.828 53.8905 118.002 58.148 113.861 61.0434C108.341 64.9024 101.689 65.9406 94.9132 66.2908C91.9489 66.3775 89.0008 66.7214 86.1108 67.3177C82.7485 68.0928 81.7117 70.8132 80.8459 73.4594C79.6975 76.9676 79.7264 80.684 78.615 84.1823C77.2221 88.5269 75.9168 92.9187 71.1594 95.6375C64.6917 99.3316 53.9735 99.8012 48.8683 92.2752C46.7271 89.1147 46.3899 85.5216 46.6753 81.8809C47.0246 77.3678 48.2861 72.9523 48.4899 68.4052C48.6457 64.9357 46.6958 62.5406 43.2842 62.1655C42.5113 62.1203 41.737 62.2386 41.0249 62.5107C36.1831 63.9926 32.0319 66.7319 27.2827 68.3911C23.2442 69.819 19.1149 70.8038 14.7237 70.7423C7.61591 70.6541 1.47016 66.6341 1.15091 59.5747ZM75.9398 45.5404C75.6898 40.871 70.9741 38.6536 67.8879 38.641C61.4717 38.6094 56.4915 42.2072 55.0838 47.7702C53.8076 52.8116 57.295 56.6454 61.8188 57.5665C70.085 59.2091 77.6355 50.9246 75.9375 45.5292L75.9398 45.5404Z" fill="#004AAD"/>
</svg>
