<svg width="69" height="50" viewBox="0 0 69 50" fill="none" xmlns="http://www.w3.org/2000/svg">
<path d="M1.06361 29.9177C-0.286829 25.32 4.00476 20.491 8.08104 19.0425C11.7468 17.7454 15.2803 18.1401 18.6173 19.771C19.3304 20.1353 20.0731 20.4634 20.8406 20.7533C23.7462 21.7971 24.9564 21.0592 25.4657 18.4985C25.7915 16.8566 24.8411 15.4469 23.9356 14.0909C22.1353 11.3928 21.4962 8.55633 22.4584 5.65225C23.2302 3.35039 24.9753 1.50226 28.1367 0.701127C31.9232 -0.260774 36.4758 1.27239 37.8028 4.02438C38.3553 5.17126 37.9295 6.34337 37.9593 7.50282C37.987 8.60059 37.9749 9.69824 38.3821 10.7671C38.8248 11.9451 39.8062 12.2312 41.1096 11.54C42.1975 10.9218 43.1309 10.1542 43.8635 9.27507C47.0585 5.66931 51.5724 4.74894 56.734 5.63763C60.494 6.2866 61.7002 9.12939 59.5461 11.4657C58.4966 12.6028 56.9361 13.2493 55.5784 14.0915C54.8779 14.5263 54.1228 14.9089 53.4468 15.3635C51.4771 16.6995 51.586 18.4421 53.6424 19.7754C55.8717 21.2196 58.611 21.4254 61.3093 21.7223C64.0076 22.0192 66.3738 22.6752 67.7347 24.6885C69.3433 27.0577 68.2925 29.1999 65.91 30.6567C62.7341 32.5985 58.907 33.1208 55.0088 33.297C53.3033 33.3407 51.6071 33.5137 49.9444 33.8137C48.0099 34.2038 47.4134 35.5725 46.9153 36.904C46.2545 38.6692 46.2712 40.5392 45.6317 42.2994C44.8303 44.4854 44.0794 46.6953 41.3422 48.0633C37.6211 49.922 31.4545 50.1583 28.5173 46.3714C27.2854 44.7812 27.0914 42.9733 27.2556 41.1414C27.4566 38.8706 28.1823 36.6489 28.2996 34.3609C28.3892 32.6152 27.2674 31.4101 25.3046 31.2213C24.8598 31.1986 24.4144 31.2581 24.0047 31.395C21.219 32.1407 18.8306 33.519 16.0983 34.3538C13.7747 35.0723 11.399 35.5678 8.87256 35.5369C4.78317 35.4925 1.24728 33.4697 1.06361 29.9177ZM44.0926 22.8562C43.9487 20.5067 41.2357 19.391 39.46 19.3846C35.7685 19.3687 32.9032 21.1791 32.0933 23.9781C31.3591 26.5148 33.3655 28.4438 35.9682 28.9073C40.7241 29.7338 45.0682 25.5653 44.0913 22.8506L44.0926 22.8562Z" fill="#004AAD"/>
</svg>
