<svg width="104" height="181" viewBox="0 0 104 181" fill="none" xmlns="http://www.w3.org/2000/svg">
<path d="M56.5001 69.4724C56.5556 65.4876 56.5329 61.4933 56.6743 57.501C57.1233 45.0739 58.0518 32.6582 61.9651 20.5415C63.3661 16.0003 65.4459 11.6413 68.1396 7.60128C73.2697 0.190109 82.402 -1.10332 89.5072 3.99966C93.8767 7.32532 96.9788 11.9074 98.3882 17.1164C102.216 29.042 102.998 41.5049 103.105 54.0223C103.504 89.204 99.2741 124.527 90.5137 159.177C89.2436 164.152 87.3524 169.021 85.6123 173.897C84.7561 176.272 82.9726 178.286 80.6407 179.511C78.4391 180.736 76.4376 180.849 74.6557 179.386C71.8019 177.039 68.639 174.845 66.4163 172.007C58.8861 162.358 51.4051 152.647 44.4919 142.582C37.5787 132.517 30.9819 122.062 24.7557 111.497C15.7375 96.2213 8.0429 80.2968 3.40661 63.1007C0.848527 53.6028 -0.678089 43.9054 0.72184 33.9256C1.13619 30.8396 2.00255 27.8012 3.29576 24.8989C5.73577 19.6277 10.5546 17.2134 16.4975 17.7813C20.5594 18.2993 24.3529 19.8193 27.5046 22.1915C34.4459 27.0987 39.9517 33.5785 43.5581 41.0855C47.8152 49.7271 51.4346 58.6969 55.3195 67.5175C55.6028 68.214 55.8813 68.8986 56.1646 69.5951L56.5001 69.4724Z" fill="#FFF3E0"/>
</svg>
