<svg width="1080" height="1080" viewBox="0 0 1080 1080" fill="none" xmlns="http://www.w3.org/2000/svg">
<path d="M911.406 547.151C905.807 482.339 899.698 417.526 894.604 352.719C893.839 342.042 880.604 334.672 872.453 343.568C854.125 363.135 835.792 382.708 817.974 402.531C809.062 412.443 799.896 422.359 790.984 432.271C787.932 435.573 784.365 440.911 780.036 442.693C775.708 444.469 769.599 443.198 765.016 442.943C714.099 438.88 663.182 435.573 612.266 434.812C561.094 434.047 510.172 435.828 459.255 440.151C409.099 444.469 357.927 450.062 308.792 461.75C306.245 457.688 303.953 453.875 301.661 450.062C292.755 435.318 283.333 420.578 273.661 406.089C263.219 390.333 252.271 374.828 240.818 359.833C233.432 349.922 224.521 333.906 209.5 335.943C195.245 337.974 191.682 352.969 188.625 364.661C183.786 382.708 179.714 400.755 176.661 419.307C170.552 455.651 167.495 493.271 171.823 530.375C172.844 539.016 184.807 539.271 185.318 530.375C187.865 499.875 189.901 469.125 194.99 438.88C197.536 423.63 200.594 408.63 204.411 393.635C206.193 386.521 207.974 379.406 210.01 372.542C210.521 370.51 212.557 366.698 213.323 363.646C215.615 368.729 222.995 375.339 225.542 378.896C229.615 384.74 233.687 390.333 237.76 396.177C246.417 408.38 254.562 420.833 262.714 433.542C270.349 445.484 277.734 457.688 284.859 469.885C292.5 482.849 298.865 497.083 308.281 508.771C315.411 517.667 330.687 508.01 327.375 497.844C325.089 490.979 322.031 484.12 318.469 477.51C356.401 472.682 394.078 466.583 432.016 462.771C473.766 458.448 515.776 456.161 557.781 455.396C599.786 454.635 641.797 455.146 683.802 458.448C704.427 459.974 724.792 462.516 745.417 465.057C762.219 467.344 781.057 472.938 796.333 463.021C804.224 457.938 810.333 449.807 816.443 442.943C824.339 434.302 832.229 425.661 840.375 417.021C850.812 405.583 861.255 394.146 871.693 382.708C877.036 437.354 881.62 492 886.458 546.641C887.984 562.906 912.682 562.906 911.406 547.151Z" fill="black"/>
<path d="M150.917 649.442V683.921C149.594 684.27 147.526 684.625 144.708 684.984C141.901 685.343 139.125 685.526 136.375 685.526C133.609 685.526 131.177 685.317 129.083 684.901C127 684.484 125.271 683.744 123.896 682.671C122.521 681.588 121.469 680.088 120.75 678.171C120.026 676.255 119.667 673.744 119.667 670.63V586.067C119.667 583.557 120.354 581.609 121.729 580.234C123.104 578.859 124.99 577.75 127.396 576.901C131.464 575.474 136.187 574.432 141.562 573.776C146.948 573.109 152.698 572.776 158.812 572.776C175.323 572.776 187.771 576.25 196.146 583.192C204.531 590.14 208.729 599.536 208.729 611.38C208.729 618.796 206.812 625.145 202.979 630.421C199.146 635.687 194.594 639.75 189.333 642.609C193.635 648.484 197.88 654 202.062 659.151C206.255 664.291 209.552 668.953 211.958 673.13C210.76 677.328 208.573 680.536 205.396 682.755C202.229 684.963 198.667 686.067 194.708 686.067C192.083 686.067 189.812 685.765 187.896 685.171C185.979 684.578 184.297 683.744 182.854 682.671C181.422 681.588 180.109 680.27 178.917 678.713C177.719 677.161 176.583 675.479 175.5 673.671L160.417 649.442H150.917ZM162.229 625.567C166.771 625.567 170.354 624.401 172.979 622.067C175.615 619.734 176.937 616.291 176.937 611.734C176.937 607.192 175.469 603.755 172.542 601.421C169.609 599.088 164.969 597.921 158.625 597.921C156.833 597.921 155.396 597.984 154.312 598.109C153.24 598.224 152.047 598.395 150.729 598.63V625.567H162.229Z" fill="black"/>
<path d="M316.992 641.005C316.992 648.421 315.852 655.036 313.575 660.838C311.31 666.645 308.107 671.526 303.971 675.484C299.846 679.432 294.909 682.421 289.159 684.463C283.419 686.489 277.018 687.505 269.95 687.505C262.893 687.505 256.492 686.427 250.742 684.276C244.992 682.125 240.055 679.041 235.93 675.026C231.805 671.015 228.602 666.14 226.325 660.401C224.044 654.651 222.909 648.187 222.909 641.005C222.909 633.937 224.044 627.536 226.325 621.796C228.602 616.046 231.805 611.171 235.93 607.171C240.055 603.161 244.992 600.078 250.742 597.921C256.492 595.755 262.893 594.671 269.95 594.671C277.018 594.671 283.419 595.786 289.159 598.005C294.909 600.213 299.846 603.328 303.971 607.338C308.107 611.354 311.31 616.234 313.575 621.984C315.852 627.724 316.992 634.062 316.992 641.005ZM254.159 641.005C254.159 648.312 255.56 653.911 258.367 657.796C261.185 661.687 265.107 663.63 270.138 663.63C275.164 663.63 279.018 661.661 281.7 657.713C284.393 653.755 285.742 648.187 285.742 641.005C285.742 633.828 284.367 628.291 281.617 624.401C278.867 620.515 274.977 618.567 269.95 618.567C264.919 618.567 261.034 620.515 258.284 624.401C255.534 628.291 254.159 633.828 254.159 641.005Z" fill="black"/>
<path d="M387.188 629.338C387.188 625.619 386.136 622.895 384.042 621.171C381.959 619.437 379.115 618.567 375.521 618.567C373.131 618.567 370.771 618.869 368.438 619.463C366.105 620.062 364.094 620.958 362.417 622.151V684.442C361.219 684.802 359.334 685.161 356.75 685.526C354.177 685.885 351.521 686.067 348.771 686.067C346.146 686.067 343.782 685.885 341.688 685.526C339.589 685.161 337.818 684.453 336.375 683.38C334.943 682.296 333.839 680.833 333.063 678.984C332.282 677.125 331.896 674.703 331.896 671.713V617.838C331.896 614.604 332.584 611.974 333.959 609.942C335.334 607.901 337.219 606.046 339.625 604.38C343.693 601.505 348.802 599.171 354.959 597.38C361.125 595.578 367.98 594.671 375.521 594.671C389.047 594.671 399.464 597.64 406.771 603.567C414.073 609.5 417.73 617.729 417.73 628.255V684.442C416.521 684.802 414.631 685.161 412.063 685.526C409.49 685.885 406.834 686.067 404.084 686.067C401.443 686.067 399.073 685.885 396.98 685.526C394.881 685.161 393.115 684.453 391.688 683.38C390.256 682.296 389.146 680.833 388.355 678.984C387.573 677.125 387.188 674.703 387.188 671.713V629.338Z" fill="black"/>
<path d="M450.22 662.359C448.897 659.375 447.491 656.026 445.991 652.317C444.501 648.609 442.949 644.359 441.324 639.567C439.71 634.776 438.038 629.307 436.303 623.151C434.564 616.984 432.741 609.89 430.824 601.859C432.501 600.182 434.746 598.713 437.553 597.463C440.371 596.203 443.454 595.567 446.803 595.567C450.996 595.567 454.47 596.437 457.22 598.171C459.97 599.911 462.001 603.171 463.324 607.963L477.512 657.338H478.241C479.668 653.27 481.074 648.849 482.449 644.067C483.824 639.276 485.168 634.338 486.491 629.255C487.809 624.161 489.033 619.067 490.158 613.984C491.293 608.901 492.288 603.901 493.137 598.984C497.439 596.708 502.168 595.567 507.324 595.567C511.501 595.567 514.97 596.474 517.72 598.276C520.48 600.067 521.866 603.182 521.866 607.609C521.866 610.849 521.439 614.588 520.595 618.838C519.762 623.078 518.658 627.588 517.283 632.38C515.908 637.171 514.288 642.109 512.428 647.192C510.579 652.276 508.637 657.276 506.595 662.192C504.564 667.099 502.47 671.734 500.303 676.109C498.147 680.474 496.059 684.39 494.033 687.859C490.684 693.718 487.574 698.505 484.699 702.213C481.824 705.932 479.064 708.838 476.428 710.921C473.803 713.015 471.168 714.453 468.533 715.234C465.908 716.01 463.158 716.401 460.283 716.401C455.251 716.401 451.184 714.901 448.074 711.901C444.96 708.911 443.105 705.031 442.512 700.255C446.329 697.255 450.158 693.927 453.991 690.276C457.824 686.635 461.293 682.901 464.408 679.067C462.366 678.474 460.178 677.067 457.845 674.859C455.512 672.64 452.97 668.474 450.22 662.359Z" fill="black"/>
<path d="M530.132 670.088C530.132 665.062 531.684 660.875 534.798 657.526C537.908 654.166 542.158 652.484 547.548 652.484C552.923 652.484 557.163 654.166 560.277 657.526C563.387 660.875 564.944 665.062 564.944 670.088C564.944 675.119 563.387 679.312 560.277 682.671C557.163 686.015 552.923 687.692 547.548 687.692C542.158 687.692 537.908 686.015 534.798 682.671C531.684 679.312 530.132 675.119 530.132 670.088Z" fill="black"/>
<path d="M618.281 594.671C625.458 594.671 632.136 595.604 638.302 597.463C644.469 599.328 649.761 602.171 654.177 606.005C658.604 609.828 662.078 614.64 664.594 620.442C667.104 626.25 668.365 633.161 668.365 641.171C668.365 648.838 667.287 655.546 665.136 661.296C662.979 667.036 659.927 671.849 655.969 675.734C652.021 679.625 647.266 682.526 641.698 684.442C636.141 686.359 629.953 687.317 623.136 687.317C617.979 687.317 613.188 686.536 608.761 684.984V714.796C607.563 715.156 605.646 715.546 603.011 715.963C600.386 716.38 597.698 716.588 594.948 716.588C592.307 716.588 589.938 716.406 587.844 716.046C585.745 715.682 583.979 714.963 582.552 713.88C581.12 712.807 580.042 711.343 579.323 709.484C578.599 707.635 578.24 705.218 578.24 702.234V616.046C578.24 612.812 578.927 610.182 580.302 608.151C581.677 606.109 583.563 604.255 585.969 602.588C589.677 600.187 594.281 598.27 599.781 596.838C605.292 595.395 611.458 594.671 618.281 594.671ZM618.636 663.255C630.969 663.255 637.136 655.895 637.136 641.171C637.136 633.52 635.604 627.838 632.552 624.13C629.495 620.421 625.099 618.567 619.365 618.567C617.083 618.567 615.042 618.838 613.24 619.38C611.448 619.911 609.896 620.536 608.594 621.255V660.755C610.021 661.479 611.573 662.078 613.24 662.546C614.917 663.02 616.719 663.255 618.636 663.255Z" fill="black"/>
<path d="M720.631 665.234C722.657 665.234 724.902 665.026 727.36 664.609C729.818 664.192 731.641 663.625 732.839 662.901V648.546L719.902 649.609C716.553 649.859 713.803 650.583 711.652 651.776C709.495 652.974 708.423 654.765 708.423 657.151C708.423 659.557 709.344 661.505 711.193 663.005C713.053 664.494 716.199 665.234 720.631 665.234ZM719.193 594.671C725.652 594.671 731.537 595.333 736.86 596.651C742.193 597.974 746.74 599.979 750.506 602.671C754.282 605.369 757.183 608.776 759.214 612.901C761.256 617.026 762.277 621.901 762.277 627.526V667.755C762.277 670.869 761.407 673.411 759.673 675.38C757.933 677.354 755.87 679.062 753.485 680.505C745.704 685.171 734.756 687.505 720.631 687.505C714.282 687.505 708.558 686.906 703.464 685.713C698.381 684.52 694.011 682.729 690.36 680.338C686.719 677.937 683.907 674.88 681.923 671.171C679.949 667.453 678.964 663.14 678.964 658.234C678.964 649.984 681.412 643.645 686.318 639.213C691.235 634.786 698.839 632.026 709.131 630.942L732.652 628.442V627.171C732.652 623.703 731.12 621.224 728.068 619.734C725.027 618.234 720.631 617.484 714.881 617.484C710.324 617.484 705.891 617.963 701.589 618.921C697.282 619.88 693.391 621.078 689.923 622.505C688.365 621.437 687.048 619.796 685.964 617.588C684.891 615.369 684.36 613.057 684.36 610.651C684.36 607.541 685.1 605.062 686.589 603.213C688.089 601.354 690.391 599.765 693.506 598.442C696.975 597.14 701.074 596.187 705.798 595.588C710.532 594.979 714.995 594.671 719.193 594.671Z" fill="black"/>
<path d="M823.515 594.671C830.332 594.671 836.52 595.541 842.077 597.276C847.645 599.015 852.348 601.265 856.181 604.026C858.567 605.692 860.452 607.546 861.827 609.588C863.213 611.619 863.911 614.25 863.911 617.484V680.317C863.911 686.661 862.707 692.14 860.306 696.755C857.916 701.364 854.65 705.192 850.515 708.234C846.39 711.286 841.541 713.531 835.973 714.963C830.416 716.406 824.463 717.13 818.119 717.13C807.228 717.13 798.671 715.661 792.452 712.734C786.228 709.802 783.119 705.046 783.119 698.463C783.119 695.697 783.681 693.265 784.806 691.171C785.942 689.088 787.233 687.505 788.681 686.421C792.15 688.338 796.067 689.953 800.431 691.276C804.806 692.593 809.327 693.255 813.994 693.255C820.452 693.255 825.598 692.171 829.431 690.005C833.265 687.849 835.181 684.39 835.181 679.609V676.734C830.265 678.89 824.275 679.963 817.223 679.963C811.832 679.963 806.713 679.161 801.869 677.546C797.02 675.921 792.77 673.411 789.119 670.005C785.463 666.588 782.536 662.187 780.327 656.796C778.119 651.411 777.015 645.005 777.015 637.588C777.015 630.286 778.181 623.942 780.515 618.567C782.848 613.182 786.077 608.724 790.202 605.192C794.327 601.651 799.228 599.015 804.911 597.276C810.603 595.541 816.806 594.671 823.515 594.671ZM834.64 620.713C833.806 620.244 832.577 619.77 830.952 619.296C829.338 618.812 827.338 618.567 824.952 618.567C819.077 618.567 814.671 620.213 811.744 623.505C808.812 626.796 807.348 631.494 807.348 637.588C807.348 644.536 808.812 649.536 811.744 652.588C814.671 655.63 818.416 657.151 822.973 657.151C827.874 657.151 831.765 656.02 834.64 653.755V620.713Z" fill="black"/>
<path d="M928.903 687.505C921.83 687.505 915.278 686.515 909.237 684.546C903.195 682.562 897.929 679.599 893.445 675.651C888.955 671.708 885.424 666.744 882.841 660.755C880.268 654.77 878.987 647.77 878.987 639.755C878.987 631.854 880.268 625.062 882.841 619.38C885.424 613.687 888.804 609.015 892.987 605.359C897.179 601.708 901.971 599.015 907.362 597.276C912.747 595.541 918.257 594.671 923.882 594.671C930.216 594.671 935.987 595.63 941.195 597.546C946.403 599.463 950.888 602.104 954.653 605.463C958.429 608.812 961.367 612.817 963.466 617.484C965.559 622.151 966.612 627.234 966.612 632.734C966.612 636.807 965.471 639.921 963.195 642.088C960.914 644.244 957.742 645.619 953.674 646.213L909.341 652.859C910.643 656.807 913.33 659.765 917.403 661.734C921.471 663.708 926.143 664.692 931.424 664.692C936.325 664.692 940.955 664.067 945.32 662.817C949.695 661.557 953.257 660.088 956.007 658.421C957.924 659.619 959.539 661.291 960.862 663.442C962.179 665.599 962.841 667.875 962.841 670.276C962.841 675.651 960.325 679.661 955.299 682.296C951.466 684.328 947.153 685.697 942.362 686.421C937.58 687.14 933.096 687.505 928.903 687.505ZM923.882 616.942C921.007 616.942 918.518 617.421 916.424 618.38C914.325 619.338 912.617 620.567 911.299 622.067C909.992 623.557 909.007 625.229 908.341 627.088C907.684 628.953 907.299 630.833 907.174 632.734L937.882 627.713C937.518 625.328 936.2 622.937 933.924 620.546C931.658 618.145 928.309 616.942 923.882 616.942Z" fill="black"/>
</svg>
